<svg xmlns="http://www.w3.org/2000/svg" xmlns:xlink="http://www.w3.org/1999/xlink" width="1770" height="390.78"><rect width="1770" height="390.78" rx="0" ry="0" class="a"/><svg height="390.78" viewBox="0 0 177 39.078" width="1770" xmlns="http://www.w3.org/2000/svg" xmlns:xlink="http://www.w3.org/1999/xlink"><style>@keyframes r{0%{transform:translateX(0)}4.4%{transform:translateX(-177px)}4.7%{transform:translateX(-354px)}30.3%{transform:translateX(-531px)}30.9%{transform:translateX(-708px)}31.7%{transform:translateX(-885px)}32.3%{transform:translateX(-1062px)}33.6%{transform:translateX(-1239px)}34.8%{transform:translateX(-1416px)}35.5%{transform:translateX(-1593px)}35.6%{transform:translateX(-1947px)}35.7%{transform:translateX(-2124px)}36.5%{transform:translateX(-2301px)}48.7%{transform:translateX(-2655px)}50.7%{transform:translateX(-2832px)}51.4%{transform:translateX(-3009px)}52.4%{transform:translateX(-3186px)}53.1%{transform:translateX(-3363px)}57.2%{transform:translateX(-3540px)}61.4%{transform:translateX(-3717px)}65.8%{transform:translateX(-3894px)}70.1%{transform:translateX(-4071px)}71.5%{transform:translateX(-4248px)}73.8%{transform:translateX(-4425px)}74.7%{transform:translateX(-4602px)}75.9%{transform:translateX(-4779px)}77%{transform:translateX(-4956px)}77.8%{transform:translateX(-5133px)}79.3%{transform:translateX(-5310px)}80.4%{transform:translateX(-5487px)}81.1%{transform:translateX(-5664px)}81.7%{transform:translateX(-5841px)}82.7%{transform:translateX(-6018px)}95.8%{transform:translateX(-6726px)}95.9%{transform:translateX(-7080px)}96%{transform:translateX(-7257px)}to{transform:translateX(-7434px)}}.a{fill:#282d35}.c{fill:#a8cc8c;font-weight:700}.c,.d,.e{white-space:pre}.d{fill:#71bef2;font-weight:700}.e{fill:#b9c0cb}.f,.g,.h,.i,.j,.k{fill:#a8cc8c;white-space:pre}.g,.h,.i,.j,.k{fill:#dbab79}.h,.i,.j,.k{fill:#ff5faf}.i,.j,.k{fill:#5f5f5f}.j,.k{fill:#878787}.k{fill:#d75fd7;font-weight:700}.l{fill:#b9c0cb}.m,.n,.o,.t{fill:#282d35;white-space:pre}.n,.o,.t{fill:#585858}.o,.t{fill:#ff87d7}.t{fill:#e88388;font-weight:700}.u{fill:#5f5fd7}.w{fill:#ffff5f;white-space:pre}.x{fill:#ff5fff}</style><g font-family="Monaco,Consolas,Menlo,'Bitstream Vera Sans Mono','Powerline Symbols',monospace" font-size="1.67"><defs><symbol id="1"><text y="1.67" class="c">dvitali</text><text x="8.016" y="1.67" class="d">~/.../git/git-cc</text></symbol><symbol id="2"><text y="1.67" class="e">%</text><text x="2.004" y="1.67" class="f">git</text><text x="165.33" y="1.67" class="g">(master</text><text x="173.346" y="1.67" class="g">+?)</text></symbol><symbol id="3"><text y="1.67" class="e">%</text><text x="2.004" y="1.67" class="f">git</text><text x="6.012" y="1.67" class="e">cc</text><text x="165.33" y="1.67" class="g">(master</text><text x="173.346" y="1.67" class="g">+?)</text></symbol><symbol id="4"><text x="2.004" y="1.67" class="h">❯</text><text x="4.008" y="1.67" class="h">feat</text><text x="15.03" y="1.67" class="h">A</text><text x="17.034" y="1.67" class="h">new</text><text x="21.042" y="1.67" class="h">feature</text></symbol><symbol id="5"><text x="4.008" y="1.67" class="e">fix</text><text x="15.03" y="1.67" class="e">A</text><text x="17.034" y="1.67" class="e">bug</text><text x="21.042" y="1.67" class="e">fix</text></symbol><symbol id="6"><text x="4.008" y="1.67" class="e">docs</text><text x="15.03" y="1.67" class="e">Documentation</text><text x="29.058" y="1.67" class="e">only</text><text x="34.068" y="1.67" class="e">changes</text></symbol><symbol id="7"><text x="4.008" y="1.67" class="e">style</text><text x="15.03" y="1.67" class="e">Changes</text><text x="23.046" y="1.67" class="e">that</text><text x="28.056" y="1.67" class="e">do</text><text x="31.062" y="1.67" class="e">not</text><text x="35.07" y="1.67" class="e">affect</text><text x="42.084" y="1.67" class="e">the</text><text x="46.092" y="1.67" class="e">meaning</text><text x="54.108" y="1.67" class="e">of</text><text x="57.114" y="1.67" class="e">the</text><text x="61.122" y="1.67" class="e">code</text></symbol><symbol id="8"><text x="4.008" y="1.67" class="e">refactor</text><text x="15.03" y="1.67" class="e">A</text><text x="17.034" y="1.67" class="e">code</text><text x="22.044" y="1.67" class="e">change</text><text x="29.058" y="1.67" class="e">that</text><text x="34.068" y="1.67" class="e">neither</text><text x="42.084" y="1.67" class="e">fixes</text><text x="48.096" y="1.67" class="e">a</text><text x="50.1" y="1.67" class="e">bug</text><text x="54.108" y="1.67" class="e">nor</text><text x="58.116" y="1.67" class="e">adds</text><text x="63.126" y="1.67" class="e">a</text><text x="65.13" y="1.67" class="e">feature</text></symbol><symbol id="9"><text x="4.008" y="1.67" class="e">perf</text><text x="15.03" y="1.67" class="e">A</text><text x="17.034" y="1.67" class="e">code</text><text x="22.044" y="1.67" class="e">change</text><text x="29.058" y="1.67" class="e">that</text><text x="34.068" y="1.67" class="e">improves</text><text x="43.086" y="1.67" class="e">performance</text></symbol><symbol id="10"><text x="4.008" y="1.67" class="e">test</text><text x="15.03" y="1.67" class="e">Adding</text><text x="22.044" y="1.67" class="e">missing</text><text x="30.06" y="1.67" class="e">tests</text><text x="36.072" y="1.67" class="e">or</text><text x="39.078" y="1.67" class="e">correcting</text><text x="50.1" y="1.67" class="e">existing</text><text x="59.118" y="1.67" class="e">tests</text></symbol><symbol id="11"><text x="4.008" y="1.67" class="e">build</text><text x="15.03" y="1.67" class="e">Changes</text><text x="23.046" y="1.67" class="e">that</text><text x="28.056" y="1.67" class="e">affect</text><text x="35.07" y="1.67" class="e">the</text><text x="39.078" y="1.67" class="e">build</text><text x="45.09" y="1.67" class="e">system</text><text x="52.104" y="1.67" class="e">or</text><text x="55.11" y="1.67" class="e">external</text><text x="64.128" y="1.67" class="e">dependencies</text></symbol><symbol id="12"><text x="4.008" y="1.67" class="i">↑/k</text><text x="8.016" y="1.67" class="i">up</text><text x="11.022" y="1.67" class="i">•</text><text x="13.026" y="1.67" class="i">↓/j</text><text x="17.034" y="1.67" class="i">down</text><text x="22.044" y="1.67" class="i">•</text><text x="24.048" y="1.67" class="i">/</text><text x="26.052" y="1.67" class="i">filter</text><text x="33.066" y="1.67" class="i">•</text><text x="35.07" y="1.67" class="i">q</text><text x="37.074" y="1.67" class="i">quit</text><text x="42.084" y="1.67" class="i">•</text><text x="44.088" y="1.67" class="i">?</text><text x="46.092" y="1.67" class="i">more</text></symbol><symbol id="13"><text x="4.008" y="1.67" class="e">ci</text><text x="15.03" y="1.67" class="e">Changes</text><text x="23.046" y="1.67" class="e">to</text><text x="26.052" y="1.67" class="e">CI</text><text x="29.058" y="1.67" class="e">configuration</text><text x="43.086" y="1.67" class="e">files</text><text x="49.098" y="1.67" class="e">and</text><text x="53.106" y="1.67" class="e">scripts</text></symbol><symbol id="14"><text x="4.008" y="1.67" class="e">chore</text><text x="15.03" y="1.67" class="e">Other</text><text x="21.042" y="1.67" class="e">changes</text><text x="29.058" y="1.67" class="e">that</text><text x="34.068" y="1.67" class="e">don&apos;t</text><text x="40.08" y="1.67" class="e">modify</text><text x="47.094" y="1.67" class="e">src</text><text x="51.102" y="1.67" class="e">or</text><text x="54.108" y="1.67" class="e">test</text><text x="59.118" y="1.67" class="e">files</text></symbol><symbol id="15"><text x="4.008" y="1.67" class="i">esc</text><text x="8.016" y="1.67" class="i">cancel</text></symbol><symbol id="16"><text x="4.008" y="1.67" class="j">8</text><text x="6.012" y="1.67" class="j">items</text><text x="12.024" y="1.67" class="i">•</text><text x="14.028" y="1.67" class="i">2</text><text x="16.032" y="1.67" class="i">filtered</text></symbol><symbol id="17"><text x="4.008" y="1.67" class="i">enter</text><text x="10.02" y="1.67" class="i">apply</text><text x="16.032" y="1.67" class="i">filter</text><text x="23.046" y="1.67" class="i">•</text><text x="25.05" y="1.67" class="i">esc</text><text x="29.058" y="1.67" class="i">cancel</text></symbol><symbol id="18"><text x="2.004" y="1.67" class="k">Enter</text><text x="8.016" y="1.67" class="k">scope</text><text x="14.028" y="1.67" class="k">(optional,</text><text x="25.05" y="1.67" class="k">press</text><text x="31.062" y="1.67" class="k">Enter</text><text x="37.074" y="1.67" class="k">to</text><text x="40.08" y="1.67" class="k">skip):</text></symbol><symbol id="19"><text x="2.004" y="1.67" class="e">&gt;</text><path class="l" d="M4.008 0h1v2.171h-1z"/><text x="4.008" y="1.67" class="m">s</text><text x="5.01" y="1.67" class="n">cope</text><text x="10.02" y="1.67" class="n">(optional)</text></symbol><symbol id="20"><text x="2.004" y="1.67" class="e">&gt;</text><text x="4.008" y="1.67" class="n">scope</text><text x="10.02" y="1.67" class="n">(optional)</text></symbol><symbol id="21"><text x="2.004" y="1.67" class="k">Enter</text><text x="8.016" y="1.67" class="k">commit</text><text x="15.03" y="1.67" class="k">message:</text></symbol><symbol id="22"><text x="2.004" y="1.67" class="o">docs:</text><text x="8.016" y="1.67" class="e">&gt;</text><text x="10.02" y="1.67" class="e">add</text><text x="14.028" y="1.67" class="e">README</text><path class="l" d="M20.04 0h1v2.171h-1z"/><text x="20.04" y="1.67" class="m"></text></symbol><symbol id="23"><text x="34.068" y="1.67" class="e">1</text><text x="36.072" y="1.67" class="e">file</text><text x="41.082" y="1.67" class="e">changed,</text><text x="50.1" y="1.67" class="e">12</text><text x="53.106" y="1.67" class="e">insertions(+)</text></symbol><symbol id="24"><text x="2.004" y="1.67" class="o">docs:</text><text x="8.016" y="1.67" class="e">&gt;</text><text x="10.02" y="1.67" class="e">add</text><text x="14.028" y="1.67" class="e">README</text></symbol><symbol id="25"><text y="1.67" class="e">8s</text><text x="3.006" y="1.67" class="c">dvitali</text><text x="11.022" y="1.67" class="d">~/.../git/git-cc</text></symbol><symbol id="26"><text y="1.67" class="e">%</text><text x="166.332" y="1.67" class="g">(master</text><text x="174.348" y="1.67" class="g">?)</text></symbol><symbol id="a"><path fill="transparent" d="M0 0h177v18H0z"/></symbol><symbol id="b"><path fill="#6f7683" d="M0 0h1.102v2.171H0z"/></symbol></defs><path class="a" d="M0 0h177v39.078H0z"/><g style="animation-duration:12.199229s;animation-iteration-count:infinite;animation-name:r;animation-timing-function:steps(1,end)"><svg width="7611"><svg><use xlink:href="#a"/><use xlink:href="#b" x="-.004"/></svg><svg x="177"><use xlink:href="#a"/><use xlink:href="#b" x="-.004"/></svg><svg x="354"><use xlink:href="#a"/><use xlink:href="#b" x="1.996" y="2.146"/><use xlink:href="#1"/><text y="3.841" class="e">%</text><text x="165.33" y="3.841" class="g">(master</text><text x="173.346" y="3.841" class="g">+?)</text></svg><svg x="531"><use xlink:href="#a"/><use xlink:href="#b" x="2.996" y="2.146"/><use xlink:href="#1"/><text y="3.841" class="e">%</text><text x="2.004" y="3.841" class="t">g</text><text x="165.33" y="3.841" class="g">(master</text><text x="173.346" y="3.841" class="g">+?)</text></svg><svg x="708"><use xlink:href="#a"/><use xlink:href="#b" x="3.996" y="2.146"/><use xlink:href="#1"/><text y="3.841" class="e">%</text><text x="2.004" y="3.841" class="t">gi</text><text x="165.33" y="3.841" class="g">(master</text><text x="173.346" y="3.841" class="g">+?)</text></svg><svg x="885"><use xlink:href="#a"/><use xlink:href="#b" x="4.996" y="2.146"/><use xlink:href="#1"/><use xlink:href="#2" y="2.171"/></svg><svg x="1062"><use xlink:href="#a"/><use xlink:href="#b" x="5.996" y="2.146"/><use xlink:href="#1"/><use xlink:href="#2" y="2.171"/></svg><svg x="1239"><use xlink:href="#a"/><use xlink:href="#b" x="6.996" y="2.146"/><use xlink:href="#1"/><text y="3.841" class="e">%</text><text x="2.004" y="3.841" class="f">git</text><text x="6.012" y="3.841" class="e">c</text><text x="165.33" y="3.841" class="g">(master</text><text x="173.346" y="3.841" class="g">+?)</text></svg><svg x="1416"><use xlink:href="#a"/><use xlink:href="#b" x="7.996" y="2.146"/><use xlink:href="#1"/><use xlink:href="#3" y="2.171"/></svg><svg x="1593"><use xlink:href="#a"/><use xlink:href="#b" x="-.004" y="4.317"/><use xlink:href="#1"/><use xlink:href="#3" y="2.171"/></svg><svg x="1770"><use xlink:href="#a"/><use xlink:href="#b" x="-.004" y="4.317"/><use xlink:href="#1"/><use xlink:href="#3" y="2.171"/></svg><svg x="1947"><use xlink:href="#a"/></svg><svg x="2124"><use xlink:href="#a"/><path class="u" d="M4.008 2.171h1v2.171h-1z"/><text x="4.008" y="3.841" class="e"></text><path class="u" d="M5.01 2.171h25v2.171h-25z"/><text x="5.01" y="3.841" style="white-space:pre" fill="#ffffd7">Select the type of change</text><path class="u" d="M30.06 2.171h1v2.171h-1z"/><text x="30.06" y="3.841" class="e"></text><text x="4.008" y="8.183" class="j">10</text><text x="7.014" y="8.183" class="j">items</text><use xlink:href="#4" y="10.855"/><use xlink:href="#5" y="13.026"/><use xlink:href="#6" y="15.197"/><use xlink:href="#7" y="17.368"/><use xlink:href="#8" y="19.539"/><use xlink:href="#9" y="21.71"/><use xlink:href="#10" y="23.881"/><use xlink:href="#11" y="26.052"/><text x="4.008" y="32.064" class="j">•</text><text x="5.01" y="32.064" class="i">•</text><use xlink:href="#12" y="34.736"/></svg><svg x="2301"><use xlink:href="#a"/><use xlink:href="#4" y="2.171"/><use xlink:href="#5" y="4.342"/><use xlink:href="#6" y="6.513"/><use xlink:href="#7" y="8.684"/><use xlink:href="#8" y="10.855"/><use xlink:href="#9" y="13.026"/><use xlink:href="#10" y="15.197"/><use xlink:href="#11" y="17.368"/><use xlink:href="#13" y="19.539"/><use xlink:href="#14" y="21.71"/><use xlink:href="#12" y="34.736"/></svg><svg x="2478"><use xlink:href="#a"/><use xlink:href="#4" y="2.171"/><use xlink:href="#5" y="4.342"/><use xlink:href="#6" y="6.513"/><use xlink:href="#7" y="8.684"/><use xlink:href="#8" y="10.855"/><use xlink:href="#9" y="13.026"/><use xlink:href="#10" y="15.197"/><use xlink:href="#11" y="17.368"/><use xlink:href="#13" y="19.539"/><use xlink:href="#14" y="21.71"/><use xlink:href="#15" y="34.736"/></svg><svg x="2655"><use xlink:href="#a"/><use xlink:href="#4" y="2.171"/><use xlink:href="#5" y="4.342"/><use xlink:href="#6" y="6.513"/><use xlink:href="#7" y="8.684"/><use xlink:href="#8" y="10.855"/><use xlink:href="#9" y="13.026"/><use xlink:href="#10" y="15.197"/><use xlink:href="#11" y="17.368"/><use xlink:href="#13" y="19.539"/><use xlink:href="#14" y="21.71"/><use xlink:href="#15" y="34.736"/></svg><svg x="2832"><use xlink:href="#a"/><text x="4.008" y="1.67" class="w">Filter:</text><text x="12.024" y="1.67" class="e">d</text><path class="x" d="M13.026 0h1v2.171h-1z"/><text x="13.026" y="1.67" class="m"></text><use xlink:href="#16" y="4.342"/><text x="2.004" y="10.354" class="h">❯</text><text x="4.008" y="10.354" class="h">docs</text><text x="15.03" y="10.354" class="h">Documentation</text><text x="29.058" y="10.354" class="h">only</text><text x="34.068" y="10.354" class="h">changes</text><use xlink:href="#14" y="10.855"/><use xlink:href="#7" y="13.026"/><use xlink:href="#9" y="15.197"/><use xlink:href="#11" y="17.368"/><use xlink:href="#13" y="19.539"/><use xlink:href="#8" y="23.881"/><use xlink:href="#17" y="34.736"/></svg><svg x="3009"><use xlink:href="#a"/><text x="4.008" y="3.841" class="w">Filter:</text><text x="12.024" y="3.841" class="e">do</text><path class="x" d="M14.028 2.171h1v2.171h-1z"/><text x="14.028" y="3.841" class="m"></text><use xlink:href="#16" y="4.342"/><text x="4.008" y="8.183" class="j">7</text><text x="6.012" y="8.183" class="j">items</text><text x="12.024" y="8.183" class="i">•</text><text x="14.028" y="8.183" class="i">3</text><text x="16.032" y="8.183" class="i">filtered</text><use xlink:href="#10" y="17.368"/><use xlink:href="#9" y="19.539"/><use xlink:href="#11" y="21.71"/><use xlink:href="#8" y="23.881"/><use xlink:href="#17" y="34.736"/></svg><svg x="3186"><use xlink:href="#a"/><text x="4.008" y="3.841" class="w">Filter:</text><text x="12.024" y="3.841" class="e">doc</text><path class="x" d="M15.03 2.171h1v2.171h-1z"/><text x="15.03" y="3.841" class="m"></text><text x="4.008" y="8.183" class="j">6</text><text x="6.012" y="8.183" class="j">items</text><text x="12.024" y="8.183" class="i">•</text><text x="14.028" y="8.183" class="i">4</text><text x="16.032" y="8.183" class="i">filtered</text><use xlink:href="#7" y="13.026"/><use xlink:href="#10" y="15.197"/><use xlink:href="#14" y="17.368"/><use xlink:href="#9" y="19.539"/><use xlink:href="#11" y="21.71"/><use xlink:href="#17" y="34.736"/></svg><svg x="3363"><use xlink:href="#a"/><text x="4.008" y="3.841" class="w">Filter:</text><text x="12.024" y="3.841" class="e">docs</text><path class="x" d="M16.032 2.171h1v2.171h-1z"/><text x="16.032" y="3.841" class="m"></text><text x="4.008" y="8.183" class="j">4</text><text x="6.012" y="8.183" class="j">items</text><text x="12.024" y="8.183" class="i">•</text><text x="14.028" y="8.183" class="i">6</text><text x="16.032" y="8.183" class="i">filtered</text><use xlink:href="#10" y="13.026"/><use xlink:href="#14" y="15.197"/><use xlink:href="#11" y="17.368"/><use xlink:href="#17" y="34.736"/></svg><svg x="3540"><use xlink:href="#a"/><use xlink:href="#18" y="2.171"/><use xlink:href="#19" y="4.342"/></svg><svg x="3717"><use xlink:href="#a"/><use xlink:href="#18" y="2.171"/><use xlink:href="#20" y="4.342"/></svg><svg x="3894"><use xlink:href="#a"/><use xlink:href="#18" y="2.171"/><use xlink:href="#19" y="4.342"/></svg><svg x="4071"><use xlink:href="#a"/><use xlink:href="#18" y="2.171"/><use xlink:href="#20" y="4.342"/></svg><svg x="4248"><use xlink:href="#a"/><use xlink:href="#21" y="2.171"/><text x="2.004" y="6.012" class="o">docs:</text><text x="8.016" y="6.012" class="e">&gt;</text><path class="l" d="M10.02 4.342h1v2.171h-1z"/><text x="10.02" y="6.012" class="m">c</text><text x="11.022" y="6.012" class="n">ommit</text><text x="17.034" y="6.012" class="n">message</text></svg><svg x="4425"><use xlink:href="#a"/><use xlink:href="#21" y="2.171"/><text x="2.004" y="6.012" class="o">docs:</text><text x="8.016" y="6.012" class="e">&gt;</text><text x="10.02" y="6.012" class="e">a</text><path class="l" d="M11.022 4.342h1v2.171h-1z"/><text x="11.022" y="6.012" class="m"></text></svg><svg x="4602"><use xlink:href="#a"/><use xlink:href="#21" y="2.171"/><text x="2.004" y="6.012" class="o">docs:</text><text x="8.016" y="6.012" class="e">&gt;</text><text x="10.02" y="6.012" class="e">ad</text><path class="l" d="M12.024 4.342h1v2.171h-1z"/><text x="12.024" y="6.012" class="m"></text></svg><svg x="4779"><use xlink:href="#a"/><use xlink:href="#21" y="2.171"/><text x="2.004" y="6.012" class="o">docs:</text><text x="8.016" y="6.012" class="e">&gt;</text><text x="10.02" y="6.012" class="e">add</text><path class="l" d="M13.026 4.342h1v2.171h-1z"/><text x="13.026" y="6.012" class="m"></text></svg><svg x="4956"><use xlink:href="#a"/><use xlink:href="#21" y="2.171"/><text x="2.004" y="6.012" class="o">docs:</text><text x="8.016" y="6.012" class="e">&gt;</text><text x="10.02" y="6.012" class="e">add</text><path class="l" d="M14.028 4.342h1v2.171h-1z"/><text x="14.028" y="6.012" class="m"></text></svg><svg x="5133"><use xlink:href="#a"/><use xlink:href="#21" y="2.171"/><text x="2.004" y="6.012" class="o">docs:</text><text x="8.016" y="6.012" class="e">&gt;</text><text x="10.02" y="6.012" class="e">add</text><text x="14.028" y="6.012" class="e">R</text><path class="l" d="M15.03 4.342h1v2.171h-1z"/><text x="15.03" y="6.012" class="m"></text></svg><svg x="5310"><use xlink:href="#a"/><use xlink:href="#21" y="2.171"/><text x="2.004" y="6.012" class="o">docs:</text><text x="8.016" y="6.012" class="e">&gt;</text><text x="10.02" y="6.012" class="e">add</text><text x="14.028" y="6.012" class="e">RE</text><path class="l" d="M16.032 4.342h1v2.171h-1z"/><text x="16.032" y="6.012" class="m"></text></svg><svg x="5487"><use xlink:href="#a"/><use xlink:href="#21" y="2.171"/><text x="2.004" y="6.012" class="o">docs:</text><text x="8.016" y="6.012" class="e">&gt;</text><text x="10.02" y="6.012" class="e">add</text><text x="14.028" y="6.012" class="e">REA</text><path class="l" d="M17.034 4.342h1v2.171h-1z"/><text x="17.034" y="6.012" class="m"></text></svg><svg x="5664"><use xlink:href="#a"/><use xlink:href="#21" y="2.171"/><text x="2.004" y="6.012" class="o">docs:</text><text x="8.016" y="6.012" class="e">&gt;</text><text x="10.02" y="6.012" class="e">add</text><text x="14.028" y="6.012" class="e">READ</text><path class="l" d="M18.036 4.342h1v2.171h-1z"/><text x="18.036" y="6.012" class="m"></text></svg><svg x="5841"><use xlink:href="#a"/><use xlink:href="#21" y="2.171"/><text x="2.004" y="6.012" class="o">docs:</text><text x="8.016" y="6.012" class="e">&gt;</text><text x="10.02" y="6.012" class="e">add</text><text x="14.028" y="6.012" class="e">READM</text><path class="l" d="M19.038 4.342h1v2.171h-1z"/><text x="19.038" y="6.012" class="m"></text></svg><svg x="6018"><use xlink:href="#a"/><use xlink:href="#21" y="2.171"/><use xlink:href="#22" y="4.342"/></svg><svg x="6195"><use xlink:href="#a"/><use xlink:href="#21" y="2.171"/><use xlink:href="#22" y="4.342"/><text y="8.183" class="e">[master</text><text x="8.016" y="8.183" class="e">d3a45fa]</text><text x="17.034" y="8.183" class="e">docs:</text><text x="23.046" y="8.183" class="e">add</text><text x="27.054" y="8.183" class="e">README</text><use xlink:href="#23" y="8.684"/><text x="67.134" y="12.525" class="e">create</text><text x="74.148" y="12.525" class="e">mode</text><text x="79.158" y="12.525" class="e">100644</text><text x="86.172" y="12.525" class="e">README.md</text></svg><svg x="6372"><use xlink:href="#a"/><use xlink:href="#b" x="-.004" y="6.488"/><use xlink:href="#21" y="2.171"/><use xlink:href="#22" y="4.342"/><use xlink:href="#23" y="8.684"/><use xlink:href="#24" y="10.855"/></svg><svg x="6549"><use xlink:href="#a"/><use xlink:href="#b" x="-.004" y="6.488"/><use xlink:href="#21" y="2.171"/><use xlink:href="#22" y="4.342"/><use xlink:href="#23" y="8.684"/><use xlink:href="#24" y="10.855"/></svg><svg x="6726"><use xlink:href="#a"/><use xlink:href="#b" x="-.004" y="4.317"/><use xlink:href="#1"/><use xlink:href="#3" y="2.171"/></svg><svg x="6903"><use xlink:href="#a"/><use xlink:href="#b" x="-.004" y="4.317"/><use xlink:href="#1"/><use xlink:href="#3" y="2.171"/></svg><svg x="7080"><use xlink:href="#a"/><use xlink:href="#b" x="1.996" y="6.488"/><use xlink:href="#1"/><use xlink:href="#3" y="2.171"/><use xlink:href="#25" y="4.342"/><text y="8.183" class="e">%</text></svg><svg x="7257"><use xlink:href="#a"/><use xlink:href="#b" x="1.996" y="6.488"/><use xlink:href="#1"/><use xlink:href="#3" y="2.171"/><use xlink:href="#25" y="4.342"/><use xlink:href="#26" y="6.513"/></svg><svg x="7434"><use xlink:href="#a"/><use xlink:href="#b" x="1.996" y="6.488"/><use xlink:href="#1"/><use xlink:href="#3" y="2.171"/><use xlink:href="#25" y="4.342"/><use xlink:href="#26" y="6.513"/></svg></svg></g></g></svg></svg>